<svg width="20" height="20" viewBox="0 0 20 20" fill="none" xmlns="http://www.w3.org/2000/svg">
<path d="M2.00741 16.1495C2.08851 17.1477 2.85229 17.9115 3.85046 17.9926C5.11148 18.095 7.12344 18.2031 10 18.2031C12.8766 18.2031 14.8885 18.095 16.1495 17.9926C17.1477 17.9115 17.9115 17.1477 17.9926 16.1495C18.095 14.8885 18.2031 12.8766 18.2031 10C18.2031 7.12344 18.095 5.11148 17.9926 3.85046C17.9115 2.8523 17.1477 2.08851 16.1495 2.00741C14.8885 1.90495 12.8766 1.79688 10 1.79688C7.12344 1.79688 5.11148 1.90495 3.85046 2.00741C2.8523 2.0885 2.08851 2.85229 2.00741 3.85046C1.90495 5.11148 1.79688 7.12344 1.79688 10C1.79688 12.8766 1.90495 14.8885 2.00741 16.1495Z" stroke="black" stroke-width="1.25" stroke-linejoin="round"/>
<path d="M1.99219 5.89844H18.0078" stroke="black" stroke-width="1.25" stroke-linecap="round"/>
<path d="M4.53125 3.94531H5.3125" stroke="black" stroke-width="1.25" stroke-linecap="round" stroke-linejoin="round"/>
<path d="M7.65625 3.94531H8.4375" stroke="black" stroke-width="1.25" stroke-linecap="round" stroke-linejoin="round"/>
<path d="M9.3782 15.4402C8.96316 15.3989 8.69516 15.0541 8.67711 14.6375C8.66379 14.3297 8.65035 13.8989 8.64184 13.3113C8.05422 13.3028 7.62344 13.2893 7.31566 13.276C6.89902 13.258 6.55422 12.99 6.51289 12.5749C6.49598 12.4048 6.48438 12.1986 6.48438 11.9531C6.48438 11.7076 6.49598 11.5015 6.51289 11.3313C6.55422 10.9163 6.89902 10.6483 7.31566 10.6302C7.62344 10.6169 8.05422 10.6035 8.64184 10.595C8.65035 10.0073 8.66379 9.57656 8.67711 9.26879C8.69516 8.85215 8.96316 8.50734 9.3782 8.46602C9.54836 8.4491 9.75449 8.4375 10 8.4375C10.2455 8.4375 10.4516 8.4491 10.6218 8.46602C11.0368 8.50734 11.3048 8.85215 11.3229 9.26879C11.3362 9.57656 11.3496 10.0073 11.3582 10.595C11.9458 10.6035 12.3766 10.6169 12.6843 10.6302C13.101 10.6483 13.4458 10.9163 13.4871 11.3313C13.504 11.5015 13.5156 11.7076 13.5156 11.9531C13.5156 12.1986 13.504 12.4048 13.4871 12.5749C13.4458 12.99 13.101 13.258 12.6843 13.276C12.3766 13.2893 11.9458 13.3028 11.3582 13.3113C11.3496 13.8989 11.3362 14.3297 11.3229 14.6375C11.3048 15.0541 11.0368 15.3989 10.6218 15.4402C10.4516 15.4571 10.2455 15.4687 10 15.4687C9.75449 15.4687 9.54836 15.4571 9.3782 15.4402Z" stroke="black" stroke-width="1.25" stroke-linejoin="round"/>
</svg>
