<svg width="20" height="20" viewBox="0 0 20 20" fill="none" xmlns="http://www.w3.org/2000/svg">
<path d="M16 11.5C17.0938 11.5 18 12.4062 18 13.5V16C18 17.125 17.0938 18 16 18H4C2.875 18 2 17.125 2 16V13.5C2 12.4062 2.875 11.5 4 11.5H5.65625L7.15625 13H4C3.71875 13 3.5 13.25 3.5 13.5V16C3.5 16.2812 3.71875 16.5 4 16.5H16C16.25 16.5 16.5 16.2812 16.5 16V13.5C16.5 13.25 16.25 13 16 13H12.8125L14.3125 11.5H16ZM15.5 14.75C15.5 15.1875 15.1562 15.5 14.75 15.5C14.3125 15.5 14 15.1875 14 14.75C14 14.3438 14.3125 14 14.75 14C15.1562 14 15.5 14.3438 15.5 14.75ZM9.46875 13.5312L5.1875 9.28125C4.875 9 4.875 8.53125 5.1875 8.21875C5.46875 7.9375 5.9375 7.9375 6.25 8.21875L9.25 11.2188V2.75C9.25 2.34375 9.5625 2 10 2C10.4062 2 10.75 2.34375 10.75 2.75V11.2188L13.7188 8.25C14 7.9375 14.4688 7.9375 14.75 8.25C15.0625 8.53125 15.0625 9 14.75 9.28125L10.5 13.5312C10.375 13.6875 10.1875 13.75 10 13.75C9.78125 13.75 9.59375 13.6875 9.46875 13.5312Z" fill="#7F56D9"/>
</svg>
