<svg width="20" height="20" viewBox="0 0 20 20" fill="none" xmlns="http://www.w3.org/2000/svg">
<path d="M7.5 3.125C7.5 3.78804 7.76339 4.42393 8.23223 4.89277C8.70107 5.36161 9.33696 5.625 10 5.625C10.663 5.625 11.2989 5.36161 11.7678 4.89277C12.2366 4.42393 12.5 3.78804 12.5 3.125C12.5 2.46196 12.2366 1.82607 11.7678 1.35723C11.2989 0.888392 10.663 0.625 10 0.625C9.33696 0.625 8.70107 0.888392 8.23223 1.35723C7.76339 1.82607 7.5 2.46196 7.5 3.125Z" stroke="#1F1F1F" stroke-width="1.25" stroke-linecap="round" stroke-linejoin="round"/>
<path d="M13.334 16.875C13.334 17.538 13.5974 18.1739 14.0662 18.6428C14.5351 19.1116 15.1709 19.375 15.834 19.375C16.497 19.375 17.1329 19.1116 17.6018 18.6428C18.0706 18.1739 18.334 17.538 18.334 16.875C18.334 16.212 18.0706 15.5761 17.6018 15.1072C17.1329 14.6384 16.497 14.375 15.834 14.375C15.1709 14.375 14.5351 14.6384 14.0662 15.1072C13.5974 15.5761 13.334 16.212 13.334 16.875Z" stroke="#1F1F1F" stroke-width="1.25" stroke-linecap="round" stroke-linejoin="round"/>
<path d="M1.66602 16.875C1.66602 17.538 1.92941 18.1739 2.39825 18.6428C2.86709 19.1116 3.50297 19.375 4.16602 19.375C4.82906 19.375 5.46494 19.1116 5.93378 18.6428C6.40262 18.1739 6.66602 17.538 6.66602 16.875C6.66602 16.212 6.40262 15.5761 5.93378 15.1072C5.46494 14.6384 4.82906 14.375 4.16602 14.375C3.50297 14.375 2.86709 14.6384 2.39825 15.1072C1.92941 15.5761 1.66602 16.212 1.66602 16.875Z" stroke="#1F1F1F" stroke-width="1.25" stroke-linecap="round" stroke-linejoin="round"/>
<path d="M9.99935 5.625V7.08333C9.99935 7.85688 9.69206 8.59875 9.14508 9.14573C8.5981 9.69271 7.85623 10 7.08268 10C6.30913 10 5.56727 10.3073 5.02029 10.8543C4.47331 11.4013 4.16602 12.1431 4.16602 12.9167V14.375" stroke="#1F1F1F" stroke-width="1.25" stroke-linecap="round" stroke-linejoin="round"/>
<path d="M10 5.625V7.08333C10 7.85688 10.3073 8.59875 10.8543 9.14573C11.4013 9.69271 12.1431 10 12.9167 10C13.6902 10 14.4321 10.3073 14.9791 10.8543C15.526 11.4013 15.8333 12.1431 15.8333 12.9167V14.375" stroke="#1F1F1F" stroke-width="1.25" stroke-linecap="round" stroke-linejoin="round"/>
</svg>
