<svg width="20" height="20" viewBox="0 0 20 20" fill="none" xmlns="http://www.w3.org/2000/svg">
<path d="M8 16.25C8 16.6875 7.65625 17 7.25 17H5C3.3125 17 2 15.6875 2 14V6C2 4.34375 3.3125 3 5 3H7.25C7.65625 3 8 3.34375 8 3.75C8 4.1875 7.65625 4.5 7.25 4.5H5C4.15625 4.5 3.5 5.1875 3.5 6V14C3.5 14.8438 4.15625 15.5 5 15.5H7.25C7.65625 15.5 8 15.8438 8 16.25ZM17.7812 9.5L13.8125 5.25C13.5312 4.9375 13.0625 4.9375 12.75 5.21875C12.4375 5.5 12.4375 5.96875 12.7188 6.28125L15.5 9.25H7.71875C7.3125 9.25 7 9.59375 7 10C7 10.4375 7.3125 10.75 7.71875 10.75H15.4688L12.6562 13.75C12.375 14.0625 12.375 14.5312 12.6875 14.8125C12.875 14.9375 13.0625 15 13.2188 15C13.4062 15 13.5938 14.9375 13.75 14.7812L17.7188 10.5312C18.0625 10.25 18.0625 9.78125 17.7812 9.5Z" fill="#1F1F1F"/>
</svg>
