<svg width="63" height="16" viewBox="0 0 63 16" fill="none" xmlns="http://www.w3.org/2000/svg">
<g clip-path="url(#clip0_1843_12631)">
<path d="M6.50081 2.17578V13.8238M6.50081 13.8238L10.8688 9.45578M6.50081 13.8238L2.13281 9.45578" stroke="#FF4C4C" stroke-width="1.5" stroke-linecap="round" stroke-linejoin="round"/>
</g>
<path d="M21.312 15.674H19.954C19.4873 15.142 19.0767 14.5167 18.722 13.798C18.3767 13.0887 18.106 12.3187 17.91 11.488C17.7233 10.648 17.63 9.78 17.63 8.884C17.63 8.06267 17.714 7.246 17.882 6.434C18.0593 5.61267 18.3207 4.83333 18.666 4.096C19.0113 3.34933 19.4407 2.68667 19.954 2.108H21.312C20.9293 2.63067 20.5887 3.25133 20.29 3.97C19.9913 4.67933 19.758 5.44933 19.59 6.28C19.4313 7.11067 19.352 7.97867 19.352 8.884C19.352 9.71467 19.4267 10.5407 19.576 11.362C19.7253 12.1833 19.9447 12.958 20.234 13.686C20.5327 14.4233 20.892 15.086 21.312 15.674ZM22.1746 10.018V8.506H26.6826V10.018H22.1746ZM27.2152 2.766H34.5652V4.418H27.2152V2.766ZM33.1652 3.522L34.5652 4.418L30.8552 13H28.9932L33.1652 3.522ZM35.0747 7.904C35.0747 6.84 35.252 5.91133 35.6067 5.118C35.9707 4.32467 36.4747 3.704 37.1187 3.256C37.772 2.79867 38.5327 2.57 39.4007 2.57C40.278 2.57 41.0387 2.79867 41.6827 3.256C42.336 3.704 42.84 4.32467 43.1947 5.118C43.5587 5.91133 43.7407 6.84 43.7407 7.904C43.7407 8.95867 43.568 9.88267 43.2227 10.676C42.8773 11.4693 42.3827 12.0853 41.7387 12.524C41.0947 12.9627 40.3153 13.182 39.4007 13.182C38.5047 13.182 37.73 12.9627 37.0767 12.524C36.4327 12.0853 35.938 11.4693 35.5927 10.676C35.2473 9.88267 35.0747 8.95867 35.0747 7.904ZM36.8387 7.904C36.8387 8.688 36.9413 9.36 37.1467 9.92C37.352 10.4707 37.646 10.8907 38.0287 11.18C38.4113 11.46 38.8687 11.6 39.4007 11.6C39.9513 11.6 40.4133 11.46 40.7867 11.18C41.1693 10.8907 41.4633 10.4707 41.6687 9.92C41.874 9.36 41.9767 8.688 41.9767 7.904C41.9767 7.092 41.874 6.41067 41.6687 5.86C41.4633 5.3 41.1693 4.87533 40.7867 4.586C40.4133 4.29667 39.9513 4.152 39.4007 4.152C38.8687 4.152 38.4113 4.29667 38.0287 4.586C37.646 4.87533 37.352 5.3 37.1467 5.86C36.9413 6.41067 36.8387 7.092 36.8387 7.904ZM50.1678 5.258C50.1678 5.78067 50.0511 6.24733 49.8178 6.658C49.5938 7.05933 49.2811 7.37667 48.8798 7.61C48.4784 7.834 48.0164 7.946 47.4938 7.946C46.9804 7.946 46.5184 7.834 46.1078 7.61C45.7064 7.37667 45.3891 7.05933 45.1558 6.658C44.9318 6.24733 44.8198 5.78067 44.8198 5.258C44.8198 4.73533 44.9318 4.27333 45.1558 3.872C45.3891 3.46133 45.7064 3.144 46.1078 2.92C46.5184 2.68667 46.9804 2.57 47.4938 2.57C48.0164 2.57 48.4784 2.68667 48.8798 2.92C49.2811 3.144 49.5938 3.46133 49.8178 3.872C50.0511 4.27333 50.1678 4.73533 50.1678 5.258ZM48.8098 5.258C48.8098 4.85667 48.6884 4.53 48.4458 4.278C48.2031 4.01667 47.8858 3.886 47.4938 3.886C47.1018 3.886 46.7844 4.01667 46.5418 4.278C46.3084 4.53 46.1917 4.85667 46.1917 5.258C46.1917 5.65933 46.3084 5.99067 46.5418 6.252C46.7844 6.51333 47.1018 6.644 47.4938 6.644C47.8858 6.644 48.2031 6.51333 48.4458 6.252C48.6884 5.99067 48.8098 5.65933 48.8098 5.258ZM55.7818 2.78L48.0118 13H46.3038L54.0738 2.78H55.7818ZM57.2798 10.494C57.2798 11.0167 57.1631 11.4833 56.9298 11.894C56.7058 12.2953 56.3931 12.6127 55.9918 12.846C55.5998 13.07 55.1424 13.182 54.6198 13.182C54.0971 13.182 53.6351 13.07 53.2338 12.846C52.8324 12.6127 52.5151 12.2953 52.2818 11.894C52.0578 11.4833 51.9458 11.0167 51.9458 10.494C51.9458 9.97133 52.0578 9.50933 52.2818 9.108C52.5151 8.69733 52.8324 8.38 53.2338 8.156C53.6351 7.92267 54.0971 7.806 54.6198 7.806C55.1424 7.806 55.5998 7.92267 55.9918 8.156C56.3931 8.38 56.7058 8.69733 56.9298 9.108C57.1631 9.50933 57.2798 9.97133 57.2798 10.494ZM55.9218 10.494C55.9218 10.0833 55.8004 9.752 55.5578 9.5C55.3244 9.248 55.0118 9.122 54.6198 9.122C54.2278 9.122 53.9104 9.248 53.6678 9.5C53.4251 9.752 53.3038 10.0833 53.3038 10.494C53.3038 10.8953 53.4251 11.2267 53.6678 11.488C53.9104 11.74 54.2278 11.866 54.6198 11.866C55.0024 11.866 55.3151 11.74 55.5578 11.488C55.8004 11.2267 55.9218 10.8953 55.9218 10.494ZM59.1275 15.674H57.7695C58.1989 15.086 58.5582 14.4233 58.8475 13.686C59.1369 12.958 59.3562 12.1833 59.5055 11.362C59.6549 10.5407 59.7295 9.71467 59.7295 8.884C59.7295 7.97867 59.6455 7.11067 59.4775 6.28C59.3189 5.44933 59.0902 4.67933 58.7915 3.97C58.5022 3.25133 58.1615 2.63067 57.7695 2.108H59.1275C59.6409 2.68667 60.0702 3.34933 60.4155 4.096C60.7609 4.83333 61.0175 5.61267 61.1855 6.434C61.3629 7.246 61.4515 8.06267 61.4515 8.884C61.4515 9.78 61.3535 10.648 61.1575 11.488C60.9709 12.3187 60.7002 13.0887 60.3455 13.798C60.0002 14.5167 59.5942 15.142 59.1275 15.674Z" fill="#FF4C4C"/>
<defs>
<clipPath id="clip0_1843_12631">
<rect width="13" height="13" fill="white" transform="translate(0 1.5)"/>
</clipPath>
</defs>
</svg>
