<svg width="58" height="16" viewBox="0 0 58 16" fill="none" xmlns="http://www.w3.org/2000/svg">
<g clip-path="url(#clip0_1843_12403)">
<path d="M6.49919 13.8242V2.17622M6.49919 2.17622L2.13119 6.54422M6.49919 2.17622L10.8672 6.54422" stroke="#067647" stroke-width="1.5" stroke-linecap="round" stroke-linejoin="round"/>
</g>
<path d="M21.312 15.674H19.954C19.4873 15.142 19.0767 14.5167 18.722 13.798C18.3767 13.0887 18.106 12.3187 17.91 11.488C17.7233 10.648 17.63 9.78 17.63 8.884C17.63 8.06267 17.714 7.246 17.882 6.434C18.0593 5.61267 18.3207 4.83333 18.666 4.096C19.0113 3.34933 19.4407 2.68667 19.954 2.108H21.312C20.9293 2.63067 20.5887 3.25133 20.29 3.97C19.9913 4.67933 19.758 5.44933 19.59 6.28C19.4313 7.11067 19.352 7.97867 19.352 8.884C19.352 9.71467 19.4267 10.5407 19.576 11.362C19.7253 12.1833 19.9447 12.958 20.234 13.686C20.5327 14.4233 20.892 15.086 21.312 15.674ZM26.6406 4.782V11.796H25.2126V4.782H26.6406ZM22.4266 7.568H29.4266V8.996H22.4266V7.568ZM37.8288 2.766V13H36.1348V2.766H37.8288ZM30.9408 9.486L35.5748 2.766H37.4648L32.7608 9.598L30.9408 9.486ZM39.0748 11.054H30.9408V9.486H39.0748V11.054ZM45.4236 5.258C45.4236 5.78067 45.3069 6.24733 45.0736 6.658C44.8496 7.05933 44.5369 7.37667 44.1356 7.61C43.7343 7.834 43.2723 7.946 42.7496 7.946C42.2363 7.946 41.7743 7.834 41.3636 7.61C40.9623 7.37667 40.6449 7.05933 40.4116 6.658C40.1876 6.24733 40.0756 5.78067 40.0756 5.258C40.0756 4.73533 40.1876 4.27333 40.4116 3.872C40.6449 3.46133 40.9623 3.144 41.3636 2.92C41.7743 2.68667 42.2363 2.57 42.7496 2.57C43.2723 2.57 43.7343 2.68667 44.1356 2.92C44.5369 3.144 44.8496 3.46133 45.0736 3.872C45.3069 4.27333 45.4236 4.73533 45.4236 5.258ZM44.0656 5.258C44.0656 4.85667 43.9443 4.53 43.7016 4.278C43.4589 4.01667 43.1416 3.886 42.7496 3.886C42.3576 3.886 42.0403 4.01667 41.7976 4.278C41.5643 4.53 41.4476 4.85667 41.4476 5.258C41.4476 5.65933 41.5643 5.99067 41.7976 6.252C42.0403 6.51333 42.3576 6.644 42.7496 6.644C43.1416 6.644 43.4589 6.51333 43.7016 6.252C43.9443 5.99067 44.0656 5.65933 44.0656 5.258ZM51.0376 2.78L43.2676 13H41.5596L49.3296 2.78H51.0376ZM52.5356 10.494C52.5356 11.0167 52.4189 11.4833 52.1856 11.894C51.9616 12.2953 51.6489 12.6127 51.2476 12.846C50.8556 13.07 50.3983 13.182 49.8756 13.182C49.3529 13.182 48.8909 13.07 48.4896 12.846C48.0883 12.6127 47.7709 12.2953 47.5376 11.894C47.3136 11.4833 47.2016 11.0167 47.2016 10.494C47.2016 9.97133 47.3136 9.50933 47.5376 9.108C47.7709 8.69733 48.0883 8.38 48.4896 8.156C48.8909 7.92267 49.3529 7.806 49.8756 7.806C50.3983 7.806 50.8556 7.92267 51.2476 8.156C51.6489 8.38 51.9616 8.69733 52.1856 9.108C52.4189 9.50933 52.5356 9.97133 52.5356 10.494ZM51.1776 10.494C51.1776 10.0833 51.0563 9.752 50.8136 9.5C50.5803 9.248 50.2676 9.122 49.8756 9.122C49.4836 9.122 49.1663 9.248 48.9236 9.5C48.6809 9.752 48.5596 10.0833 48.5596 10.494C48.5596 10.8953 48.6809 11.2267 48.9236 11.488C49.1663 11.74 49.4836 11.866 49.8756 11.866C50.2583 11.866 50.5709 11.74 50.8136 11.488C51.0563 11.2267 51.1776 10.8953 51.1776 10.494ZM54.3834 15.674H53.0254C53.4547 15.086 53.8141 14.4233 54.1034 13.686C54.3927 12.958 54.6121 12.1833 54.7614 11.362C54.9107 10.5407 54.9854 9.71467 54.9854 8.884C54.9854 7.97867 54.9014 7.11067 54.7334 6.28C54.5747 5.44933 54.3461 4.67933 54.0474 3.97C53.7581 3.25133 53.4174 2.63067 53.0254 2.108H54.3834C54.8967 2.68667 55.3261 3.34933 55.6714 4.096C56.0167 4.83333 56.2734 5.61267 56.4414 6.434C56.6187 7.246 56.7074 8.06267 56.7074 8.884C56.7074 9.78 56.6094 10.648 56.4134 11.488C56.2267 12.3187 55.9561 13.0887 55.6014 13.798C55.2561 14.5167 54.8501 15.142 54.3834 15.674Z" fill="#067647"/>
<defs>
<clipPath id="clip0_1843_12403">
<rect width="13" height="13" fill="white" transform="matrix(-1 0 0 -1 13 14.5)"/>
</clipPath>
</defs>
</svg>
