<svg width="24" height="24" viewBox="0 0 24 24" fill="none" xmlns="http://www.w3.org/2000/svg">
<path d="M21.6875 20.8984C22.0781 21.2891 22.0781 21.875 21.6875 22.2266C21.5312 22.4219 21.2969 22.5 21.0625 22.5C20.7891 22.5 20.5547 22.4219 20.3594 22.2266L15.125 16.9922C13.7188 18.125 11.9609 18.75 10.0859 18.75C5.63281 18.75 2 15.1172 2 10.625C2 6.17188 5.59375 2.5 10.0859 2.5C14.5391 2.5 18.2109 6.17188 18.2109 10.625C18.2109 12.5391 17.5859 14.2969 16.4531 15.6641L21.6875 20.8984ZM3.875 10.625C3.875 14.1016 6.64844 16.875 10.125 16.875C13.5625 16.875 16.375 14.1016 16.375 10.625C16.375 7.1875 13.5625 4.375 10.125 4.375C6.64844 4.375 3.875 7.1875 3.875 10.625Z" fill="#1F1F1F"/>
</svg>
