<svg width="20" height="20" viewBox="0 0 20 20" fill="none" xmlns="http://www.w3.org/2000/svg">
<path d="M12.8125 13C15.125 13 17 14.875 17 17.1875C17 17.6562 16.625 18 16.1562 18H3.8125C3.34375 18 3 17.6562 3 17.1875C3 14.875 4.84375 13 7.15625 13H12.8125ZM4.5625 16.5H15.4062C15.0938 15.375 14.0625 14.5 12.8125 14.5H7.15625C5.90625 14.5 4.875 15.375 4.5625 16.5ZM10 5.5C8.59375 5.5 7.5 6.625 7.5 8C7.5 8.625 7.71875 9.15625 8.0625 9.59375C7.71875 9.96875 7.5 10.4688 7.5 11C7.5 11.0625 7.5 11.0938 7.5 11.125C6.59375 10.4062 6 9.28125 6 8C6 5.8125 7.78125 4 10 4C12.1875 4 14 5.8125 14 8C14 8.46875 13.9062 8.90625 13.75 9.3125C13.5 9.71875 13.0312 10 12.5 10H12.2188C12.125 9.875 12.0312 9.71875 11.9062 9.59375C12.25 9.15625 12.5 8.625 12.5 8C12.5 6.625 11.375 5.5 10 5.5ZM4.5 9C4.21875 9 4 8.78125 4 8.5V8C4 4.71875 6.6875 2 10 2C13.2812 2 16 4.71875 16 8V8.5C15.9688 10.4375 14.4062 12 12.5 12H9.5C8.9375 12 8.5 11.5625 8.5 11C8.5 10.4688 8.9375 10 9.5 10H10.5C11.0312 10 11.5 10.4688 11.5 11H12.5C13.875 11 15 9.90625 15 8.5V8C15 5.25 12.75 3 10 3C7.21875 3 5 5.25 5 8V8.5C5 8.78125 4.75 9 4.5 9Z" fill="#1F1F1F"/>
</svg>
